<svg width="100" height="100" viewBox="0 0 100 100" fill="none" xmlns="http://www.w3.org/2000/svg">
<g clip-path="url(#clip0_190_2)">
<path d="M0.6375 13.8937C-0.207862 17.0743 -0.202344 20.4213 0.653503 23.599C1.50935 26.7768 3.18546 29.6738 5.51382 31.9996C7.84218 34.3255 10.741 35.9984 13.9197 36.8508C17.0984 37.7032 20.4453 37.7051 23.625 36.8562L63.2563 75.9313C62.4326 78.7293 62.2724 81.6808 62.7884 84.5515C63.3044 87.4223 64.4824 90.1333 66.2288 92.4694C67.9753 94.8055 70.2422 96.7024 72.8496 98.0096C75.457 99.3168 78.3333 99.9983 81.25 100C83.9371 99.9963 86.592 99.415 89.0349 98.2956C91.4777 97.1761 93.6514 95.5447 95.4087 93.5118C97.166 91.479 98.4658 89.0921 99.2201 86.513C99.9743 83.9339 100.165 81.2229 99.7804 78.5635C99.3954 75.9041 98.4432 73.3585 96.9885 71.0992C95.5338 68.8399 93.6104 66.9197 91.3487 65.4687C89.0871 64.0177 86.5399 63.0697 83.8799 62.6891C81.2199 62.3084 78.5091 62.504 75.9313 63.2625L36.8563 23.6312C37.7092 20.4504 37.7105 17.1011 36.8599 13.9196C36.0094 10.738 34.3369 7.8362 32.0104 5.5053C29.684 3.1744 26.7853 1.49644 23.6054 0.639835C20.4255 -0.216771 17.0763 -0.221887 13.8938 0.624999L27.275 14.0125L25 25L14.0188 27.275L0.6375 13.8937ZM84.2 70.2625L87.5 70.425L89.2938 73.2063L92.075 75L92.2375 78.3063L93.75 81.25L92.2375 84.1937L92.075 87.5L89.2938 89.2937L87.5 92.075L84.1938 92.2375L81.25 93.75L78.3063 92.2375L75 92.075L73.2063 89.2937L70.425 87.5L70.2625 84.1937L68.75 81.25L70.2625 78.3063L70.425 75L73.2063 73.2063L75 70.425L78.3063 70.2625L81.25 68.75L84.1938 70.2625H84.2Z" fill="#CCCCCC"/>
</g>
<defs>
<clipPath id="clip0_190_2">
<rect width="100" height="100" fill="white"/>
</clipPath>
</defs>
</svg>
