<svg width="100" height="100" viewBox="0 0 100 100" fill="none" xmlns="http://www.w3.org/2000/svg">
<path d="M45.2938 69.625L15.3188 35.3625C11.7813 31.3312 14.6563 25 20.025 25H79.975C81.1765 24.999 82.3529 25.3443 83.3632 25.9946C84.3735 26.645 85.175 27.5727 85.6716 28.6668C86.1682 29.7609 86.3389 30.975 86.1632 32.1636C85.9876 33.3522 85.4731 34.465 84.6813 35.3687L54.7063 69.6187C54.1196 70.2901 53.3962 70.8281 52.5844 71.1967C51.7727 71.5654 50.8915 71.7561 50 71.7561C49.1085 71.7561 48.2273 71.5654 47.4156 71.1967C46.6039 70.8281 45.8804 70.2901 45.2938 69.6187V69.625Z" fill="white"/>
</svg>
