<svg width="100" height="100" viewBox="0 0 100 100" fill="none" xmlns="http://www.w3.org/2000/svg">
<path d="M45.2938 30.375L15.3188 64.6313C11.7813 68.675 14.6563 75 20.025 75H79.975C81.1765 75.001 82.3529 74.6557 83.3632 74.0054C84.3735 73.355 85.175 72.4273 85.6716 71.3332C86.1682 70.2391 86.3389 69.025 86.1632 67.8364C85.9876 66.6478 85.4731 65.535 84.6813 64.6313L54.7063 30.3813C54.1196 29.7099 53.3962 29.1719 52.5844 28.8033C51.7727 28.4346 50.8915 28.2439 50 28.2439C49.1085 28.2439 48.2273 28.4346 47.4156 28.8033C46.6039 29.1719 45.8804 29.7037 45.2938 30.375Z" fill="white"/>
</svg>
