<svg width="50" height="58" viewBox="0 0 50 58" fill="none" xmlns="http://www.w3.org/2000/svg">
<path d="M9.375 0.875C11.8614 0.875 14.246 1.86272 16.0041 3.62087C17.7623 5.37903 18.75 7.7636 18.75 10.25V47.75C18.75 50.2364 17.7623 52.621 16.0041 54.3791C14.246 56.1373 11.8614 57.125 9.375 57.125C6.8886 57.125 4.50403 56.1373 2.74587 54.3791C0.987719 52.621 5.23971e-08 50.2364 0 47.75V10.25C0 7.7636 0.987719 5.37903 2.74587 3.62087C4.50403 1.86272 6.8886 0.875 9.375 0.875ZM40.625 0.875C43.1114 0.875 45.496 1.86272 47.2541 3.62087C49.0123 5.37903 50 7.7636 50 10.25V47.75C50 50.2364 49.0123 52.621 47.2541 54.3791C45.496 56.1373 43.1114 57.125 40.625 57.125C38.1386 57.125 35.754 56.1373 33.9959 54.3791C32.2377 52.621 31.25 50.2364 31.25 47.75V10.25C31.25 7.7636 32.2377 5.37903 33.9959 3.62087C35.754 1.86272 38.1386 0.875 40.625 0.875Z" fill="white"/>
</svg>
