<svg width="64" height="64" viewBox="0 0 44 44" fill="none" xmlns="http://www.w3.org/2000/svg">
<g clip-path="url(#clip0_103_21)">
<path d="M41.25 33C41.25 33.7293 40.9603 34.4288 40.4445 34.9445C39.9288 35.4603 39.2293 35.75 38.5 35.75H5.5C4.77065 35.75 4.07118 35.4603 3.55546 34.9445C3.03973 34.4288 2.75 33.7293 2.75 33V16.5C2.75 15.7707 3.03973 15.0712 3.55546 14.5555C4.07118 14.0397 4.77065 13.75 5.5 13.75H8.723C10.9099 13.7488 13.0069 12.8794 14.553 11.3327L16.8355 9.05575C17.3498 8.54133 18.0469 8.25161 18.7743 8.25H25.2202C25.9495 8.25016 26.6489 8.53999 27.1645 9.05575L29.4415 11.3327C30.2077 12.0992 31.1175 12.7072 32.1188 13.122C33.12 13.5367 34.1932 13.7501 35.277 13.75H38.5C39.2293 13.75 39.9288 14.0397 40.4445 14.5555C40.9603 15.0712 41.25 15.7707 41.25 16.5V33ZM5.5 11C4.04131 11 2.64236 11.5795 1.61091 12.6109C0.579463 13.6424 0 15.0413 0 16.5L0 33C0 34.4587 0.579463 35.8576 1.61091 36.8891C2.64236 37.9205 4.04131 38.5 5.5 38.5H38.5C39.9587 38.5 41.3576 37.9205 42.3891 36.8891C43.4205 35.8576 44 34.4587 44 33V16.5C44 15.0413 43.4205 13.6424 42.3891 12.6109C41.3576 11.5795 39.9587 11 38.5 11H35.277C33.8184 10.9997 32.4197 10.42 31.3885 9.3885L29.1115 7.1115C28.0803 6.07998 26.6816 5.50031 25.223 5.5H18.777C17.3184 5.50031 15.9197 6.07998 14.8885 7.1115L12.6115 9.3885C11.5803 10.42 10.1816 10.9997 8.723 11H5.5Z" fill="#FFFFFF"/>
<path d="M22 30.25C20.1766 30.25 18.428 29.5257 17.1386 28.2364C15.8493 26.947 15.125 25.1984 15.125 23.375C15.125 21.5516 15.8493 19.803 17.1386 18.5136C18.428 17.2243 20.1766 16.5 22 16.5C23.8234 16.5 25.572 17.2243 26.8614 18.5136C28.1507 19.803 28.875 21.5516 28.875 23.375C28.875 25.1984 28.1507 26.947 26.8614 28.2364C25.572 29.5257 23.8234 30.25 22 30.25ZM22 33C24.5527 33 27.0009 31.9859 28.8059 30.1809C30.6109 28.3759 31.625 25.9277 31.625 23.375C31.625 20.8223 30.6109 18.3741 28.8059 16.5691C27.0009 14.7641 24.5527 13.75 22 13.75C19.4473 13.75 16.9991 14.7641 15.1941 16.5691C13.3891 18.3741 12.375 20.8223 12.375 23.375C12.375 25.9277 13.3891 28.3759 15.1941 30.1809C16.9991 31.9859 19.4473 33 22 33ZM8.25 17.875C8.25 18.2397 8.10513 18.5894 7.84727 18.8473C7.58941 19.1051 7.23967 19.25 6.875 19.25C6.51033 19.25 6.16059 19.1051 5.90273 18.8473C5.64487 18.5894 5.5 18.2397 5.5 17.875C5.5 17.5103 5.64487 17.1606 5.90273 16.9027C6.16059 16.6449 6.51033 16.5 6.875 16.5C7.23967 16.5 7.58941 16.6449 7.84727 16.9027C8.10513 17.1606 8.25 17.5103 8.25 17.875Z" fill="#FFFFFF"/>
</g>
<defs>
<clipPath id="clip0_103_21">
<rect width="64" height="64" fill="white"/>
</clipPath>
</defs>
</svg>
