<svg width="64" height="64" viewBox="0 0 44 44" fill="none" xmlns="http://www.w3.org/2000/svg">
<g clip-path="url(#clip0_103_30)">
<path d="M23.4163 2.80225C22.945 2.76746 22.4726 2.75003 22 2.75V0C22.5405 0.000263526 23.0808 0.0204439 23.6197 0.0605L23.4163 2.80225ZM28.9272 4.03975C28.0457 3.69959 27.1404 3.42476 26.2185 3.2175L26.8208 0.5335C27.874 0.77 28.9107 1.0835 29.9172 1.474L28.9272 4.03975ZM32.6947 5.99225C32.3016 5.73004 31.8989 5.48237 31.4875 5.24975L32.8432 2.85725C33.7835 3.39002 34.6833 3.99114 35.5355 4.65575L33.8442 6.8255C33.4714 6.53464 33.088 6.25761 32.6947 5.995V5.99225ZM37.7382 10.9148C37.1943 10.1419 36.5941 9.41028 35.9425 8.72575L37.9335 6.82825C38.676 7.612 39.3635 8.45075 39.9877 9.33075L37.7382 10.9148ZM39.7842 14.6328C39.6037 14.1968 39.4074 13.7675 39.1957 13.3458L41.6515 12.1083C42.1371 13.0737 42.5508 14.0738 42.889 15.1003L40.2765 15.961C40.1287 15.5124 39.9645 15.0693 39.7842 14.6328ZM41.2417 21.527C41.2195 20.5819 41.1276 19.6398 40.9667 18.7083L43.6755 18.2408C43.8597 19.3023 43.967 20.3803 43.9945 21.4583L41.2445 21.527H41.2417ZM40.8815 25.7565C40.9722 25.289 41.0465 24.8243 41.1042 24.354L43.835 24.6923C43.7029 25.7652 43.4915 26.8268 43.2025 27.8685L40.5515 27.1343C40.678 26.6805 40.788 26.2213 40.8815 25.7565ZM38.2635 32.2988C38.7695 31.5013 39.215 30.6653 39.6 29.8018L42.1135 30.9155C41.6735 31.9055 41.1647 32.857 40.5872 33.77L38.2635 32.2988ZM35.6125 35.6125C35.948 35.277 36.2697 34.9305 36.575 34.573L38.6595 36.3688C38.3065 36.778 37.9387 37.1743 37.5567 37.5568L35.6125 35.6125Z" fill="#FFFFFF"/>
<path d="M21.9998 2.75C18.8342 2.75023 15.7175 3.53113 12.9258 5.02353C10.1341 6.51593 7.75355 8.67378 5.99496 11.3059C4.23636 13.9381 3.15404 16.9633 2.84384 20.1137C2.53364 23.264 3.00514 26.4422 4.21659 29.3668C5.42803 32.2914 7.34203 34.8722 9.78905 36.8804C12.2361 38.8886 15.1406 40.2624 18.2453 40.88C21.3501 41.4977 24.5592 41.3401 27.5885 40.4213C30.6178 39.5025 33.3738 37.8508 35.6123 35.6125L37.5565 37.5567C34.9983 40.1164 31.8482 42.0055 28.3854 43.0567C24.9226 44.108 21.2539 44.2888 17.7045 43.5833C14.155 42.8778 10.8344 41.3077 8.03681 39.0121C5.23921 36.7165 3.05102 33.7663 1.66612 30.4229C0.281219 27.0795 -0.257636 23.4462 0.0973001 19.8447C0.452236 16.2433 1.69001 12.785 3.70094 9.7763C5.71187 6.76757 8.43387 4.3013 11.6258 2.59601C14.8177 0.890712 18.3809 -0.000959013 21.9998 7.7401e-07V2.75Z" fill="#FFFFFF"/>
<path d="M20.625 8.25C20.9897 8.25 21.3394 8.39487 21.5973 8.65273C21.8551 8.91059 22 9.26033 22 9.625V23.9525L30.932 29.0565C31.2394 29.242 31.4621 29.5403 31.5525 29.8878C31.6429 30.2353 31.5937 30.6043 31.4156 30.916C31.2374 31.2278 30.9445 31.4575 30.5992 31.556C30.254 31.6546 29.8839 31.6142 29.568 31.4435L19.943 25.9435C19.7326 25.8233 19.5576 25.6496 19.4359 25.44C19.3142 25.2304 19.2501 24.9924 19.25 24.75V9.625C19.25 9.26033 19.3949 8.91059 19.6527 8.65273C19.9106 8.39487 20.2603 8.25 20.625 8.25Z" fill="#FFFFFF"/>
</g>
<defs>
<clipPath id="clip0_103_30">
<rect width="64" height="64" fill="white"/>
</clipPath>
</defs>
</svg>
