<svg width="100" height="63" viewBox="0 0 100 63" fill="none" xmlns="http://www.w3.org/2000/svg">
<path d="M68.75 6.25C75.3804 6.25 81.7393 8.88392 86.4277 13.5723C91.1161 18.2607 93.75 24.6196 93.75 31.25C93.75 37.8804 91.1161 44.2393 86.4277 48.9277C81.7393 53.6161 75.3804 56.25 68.75 56.25H50C53.884 53.3419 57.0362 49.5679 59.2061 45.2281C61.3761 40.8882 62.5039 36.1021 62.5 31.25C62.5039 26.3979 61.3761 21.6118 59.2061 17.2719C57.0362 12.9321 53.884 9.15815 50 6.25H68.75ZM31.25 56.25C24.6196 56.25 18.2607 53.6161 13.5723 48.9277C8.88392 44.2393 6.25 37.8804 6.25 31.25C6.25 24.6196 8.88392 18.2607 13.5723 13.5723C18.2607 8.88392 24.6196 6.25 31.25 6.25C37.8804 6.25 44.2393 8.88392 48.9277 13.5723C53.6161 18.2607 56.25 24.6196 56.25 31.25C56.25 37.8804 53.6161 44.2393 48.9277 48.9277C44.2393 53.6161 37.8804 56.25 31.25 56.25ZM0 31.25C0 39.538 3.2924 47.4866 9.15291 53.3471C15.0134 59.2076 22.962 62.5 31.25 62.5H68.75C77.038 62.5 84.9866 59.2076 90.8471 53.3471C96.7076 47.4866 100 39.538 100 31.25C100 22.962 96.7076 15.0134 90.8471 9.15291C84.9866 3.2924 77.038 0 68.75 0H31.25C22.962 0 15.0134 3.2924 9.15291 9.15291C3.2924 15.0134 0 22.962 0 31.25Z" fill="white"/>
</svg>
