<svg width="100" height="63" viewBox="0 0 100 63" fill="none" xmlns="http://www.w3.org/2000/svg">
<path d="M31.25 0C22.962 0 15.0134 3.2924 9.15291 9.15291C3.2924 15.0134 0 22.962 0 31.25C0 39.538 3.2924 47.4866 9.15291 53.3471C15.0134 59.2076 22.962 62.5 31.25 62.5H68.75C77.038 62.5 84.9866 59.2076 90.8471 53.3471C96.7076 47.4866 100 39.538 100 31.25C100 22.962 96.7076 15.0134 90.8471 9.15291C84.9866 3.2924 77.038 0 68.75 0H31.25ZM68.75 56.25C62.1196 56.25 55.7607 53.6161 51.0723 48.9277C46.3839 44.2393 43.75 37.8804 43.75 31.25C43.75 24.6196 46.3839 18.2607 51.0723 13.5723C55.7607 8.88392 62.1196 6.25 68.75 6.25C75.3804 6.25 81.7393 8.88392 86.4277 13.5723C91.1161 18.2607 93.75 24.6196 93.75 31.25C93.75 37.8804 91.1161 44.2393 86.4277 48.9277C81.7393 53.6161 75.3804 56.25 68.75 56.25Z" fill="white"/>
</svg>
