<svg width="64" height="64" viewBox="0 0 44 44" fill="none" xmlns="http://www.w3.org/2000/svg">
<path fill-rule="evenodd" clip-rule="evenodd" d="M0 13.75C0 12.2913 0.579463 10.8924 1.61091 9.86091C2.64236 8.82946 4.04131 8.25 5.5 8.25H26.125C27.459 8.24984 28.7476 8.73453 29.7508 9.6138C30.754 10.4931 31.4035 11.707 31.5782 13.0295L40.1308 9.229C40.5494 9.04247 41.008 8.96353 41.4649 8.99934C41.9218 9.03515 42.3625 9.18458 42.7469 9.43405C43.1314 9.68352 43.4474 10.0251 43.6662 10.4278C43.8851 10.8305 43.9998 11.2815 44 11.7398V32.2602C43.9996 32.7182 43.8848 33.1688 43.6662 33.5711C43.4475 33.9735 43.1318 34.3148 42.7477 34.5642C42.3636 34.8136 41.9233 34.9632 41.4668 34.9993C41.0103 35.0354 40.552 34.9569 40.1335 34.771L31.5782 30.9705C31.4035 32.293 30.754 33.5069 29.7508 34.3862C28.7476 35.2655 27.459 35.7502 26.125 35.75H5.5C4.04131 35.75 2.64236 35.1705 1.61091 34.1391C0.579463 33.1076 0 31.7087 0 30.25V13.75ZM31.625 27.9813L41.25 32.2602V11.7398L31.625 16.0187V27.9813ZM5.5 11C4.77065 11 4.07118 11.2897 3.55546 11.8055C3.03973 12.3212 2.75 13.0207 2.75 13.75V30.25C2.75 30.9793 3.03973 31.6788 3.55546 32.1945C4.07118 32.7103 4.77065 33 5.5 33H26.125C26.8543 33 27.5538 32.7103 28.0695 32.1945C28.5853 31.6788 28.875 30.9793 28.875 30.25V13.75C28.875 13.0207 28.5853 12.3212 28.0695 11.8055C27.5538 11.2897 26.8543 11 26.125 11H5.5Z" fill="#FFFFFF"/>
</svg>
